<svg aria-hidden="true" style="width:0;height:0;position:absolute;overflow:hidden" xmlns="http://www.w3.org/2000/svg"><defs><symbol id="icon-cinema-clapperboard" viewBox="0 0 32 32"><path d="M30.258 13.598H6.608l22.119-8.056a.811.811 0 0 0 .484-1.039L27.765.533a.81.81 0 0 0-1.039-.484L1.464 9.25a.811.811 0 0 0-.484 1.039l1.446 3.97a.848.848 0 0 0 .103.193V31.19c0 .448.363.81.81.81h26.918a.81.81 0 0 0 .81-.81V14.409a.81.81 0 0 0-.81-.81zM26.924 2.96l.487 1.337-.756.275.269-1.612zm-6.037.941 3.134-1.142-.492 2.951-3.134 1.142.492-2.951zm-6.261 2.28 3.134-1.142-.492 2.951-3.134 1.142.492-2.951zm-6.26 2.28L11.5 7.319l-.492 2.951-3.134 1.142.492-2.951zM5.239 9.6l-.492 2.951-1.076.392-.891-2.447L5.239 9.6zm.089 8.224H4.183v-2.605H6.8l-1.472 2.605zm6.663 0H8.655l1.472-2.605h3.336l-1.472 2.605zm6.663 0h-3.336l1.472-2.605h3.336l-1.472 2.605zm6.663 0h-3.336l1.472-2.605h3.336l-1.472 2.605zm4.131 0h-.804l.804-1.423v1.423z"/></symbol><symbol id="icon-orange-heart" viewBox="0 0 34 32"><path fill="#ff6b08" style="fill:var(--color75,#ff6b08)" d="m17.231 31.705-2.412-2.412C5.859 21.367.001 16.025.001 9.478.001 4.136 4.136.001 9.478.001c2.929 0 5.858 1.378 7.754 3.618 1.895-2.24 4.825-3.618 7.754-3.618 5.342 0 9.477 4.135 9.477 9.477 0 6.548-5.858 11.889-14.818 19.815l-2.412 2.412z"/></symbol><symbol id="icon-yellow-heart" viewBox="0 0 34 32"><path fill="#FF0" style="fill:var(--color75,#ff0)" d="m17.231 31.705-2.412-2.412C5.859 21.367.001 16.025.001 9.478.001 4.136 4.136.001 9.478.001c2.929 0 5.858 1.378 7.754 3.618 1.895-2.24 4.825-3.618 7.754-3.618 5.342 0 9.477 4.135 9.477 9.477 0 6.548-5.858 11.889-14.818 19.815l-2.412 2.412z"/></symbol><symbol id="icon-blue-heart" viewBox="0 0 34 32"><path fill="#00F" style="fill:var(--color75,#00f)" d="m17.231 31.705-2.412-2.412C5.859 21.367.001 16.025.001 9.478.001 4.136 4.136.001 9.478.001c2.929 0 5.858 1.378 7.754 3.618 1.895-2.24 4.825-3.618 7.754-3.618 5.342 0 9.477 4.135 9.477 9.477 0 6.548-5.858 11.889-14.818 19.815l-2.412 2.412z"/></symbol><symbol id="icon-glasses" viewBox="0 0 32 32"><path fill="#2d4452" style="fill:var(--color1,#2d4452)" d="M32 16c0 8.837-7.163 16-16 16S0 24.837 0 16 7.163 0 16 0s16 7.163 16 16z"/><path fill="#e6e6e6" style="fill:var(--color2,#e6e6e6)" d="M3.25 10.25S12 8 12.75 7.75s2.75 0 2.75 2.75h-1c0-.75-.25-1.75-1.25-1.75-1 .25-4.25 1.5-4.25 1.5H3.25z"/><path fill="#d9d9d9" style="fill:var(--color3,#d9d9d9)" d="M12.5 8.75c-1 .25-4.25 1.5-4.25 1.5H9s2.723-1.047 3.95-1.416a1.176 1.176 0 0 0-.45-.084zM12.901 7.71c.851.152 1.849.846 1.849 2.79h.75c0-2.582-1.763-2.96-2.599-2.79z"/><path fill="#e6e6e6" style="fill:var(--color2,#e6e6e6)" d="M28.75 10.25S20 8 19.25 7.75s-2.75 0-2.75 2.75h1c0-.75.25-1.75 1.25-1.75 1 .25 4.25 1.5 4.25 1.5h5.75z"/><path fill="#d9d9d9" style="fill:var(--color3,#d9d9d9)" d="M17.75 8.75c-.935 0-1.214.874-1.247 1.601-.002.05-.003.098-.003.149h1c0-.588.155-1.326.702-1.62a8.547 8.547 0 0 0-.452-.13zM19.25 7.75c-.248-.082-.633-.11-1.037-.011a.518.518 0 0 1 .037.011c.75.25 9.5 2.5 9.5 2.5h1S20 8 19.25 7.75z"/><path fill="#f5f5f5" style="fill:var(--color4,#f5f5f5)" d="M3.5 10.25c-.825 0-1.5.675-1.5 1.5V18c0 .825.675 1.5 1.5 1.5h7.979c.825 0 1.796-.607 2.157-1.349 0 0 .927-2.151 2.364-2.151s2.364 2.151 2.364 2.151c.361.742 1.332 1.349 2.157 1.349H28.5c.825 0 1.5-.675 1.5-1.5v-6.25c0-.825-.675-1.5-1.5-1.5h-25z"/><path fill="#e6e6e6" style="fill:var(--color2,#e6e6e6)" d="M15.25 16c-1.438 0-2.364 2.151-2.364 2.151-.361.742-1.332 1.349-2.157 1.349h.75c.825 0 1.796-.607 2.157-1.349 0 0 .768-1.776 1.989-2.097A1.503 1.503 0 0 0 15.25 16zM28.5 10.25h-.75c.825 0 1.5.675 1.5 1.5V18c0 .825-.675 1.5-1.5 1.5h.75c.825 0 1.5-.675 1.5-1.5v-6.25c0-.825-.675-1.5-1.5-1.5z"/><path fill="#cc584c" style="fill:var(--color5,#cc584c)" d="M28 11.5h-9.25c-.55 0-1 .45-1 1v2.651c1.23.819 1.895 2.282 1.992 2.505l.04.093H28c.55 0 1-.45 1-1v-4.25c0-.55-.45-1-1-1z"/><path fill="#2995cc" style="fill:var(--color6,#2995cc)" d="M12.258 17.657c.096-.224.761-1.687 1.992-2.505V12.5c0-.55-.45-1-1-1H4c-.55 0-1 .45-1 1v4.25c0 .55.45 1 1 1h8.218l.04-.093z"/><path fill="#52a3cc" style="fill:var(--color7,#52a3cc)" d="M6.607 11.5 3 15.107v1.414L8.021 11.5zM10.143 11.5h-.707l-6.04 6.04c.144.11.318.181.507.2l6.24-6.24z"/><path fill="#cc827a" style="fill:var(--color8,#cc827a)" d="m25.936 11.5-6.183 6.183.029.067h.611l6.25-6.25zM23.108 11.5l-4.455 4.454c.242.274.444.554.606.808l5.262-5.263-1.414.001z"/><path fill="#ffd464" style="fill:var(--color9,#ffd464)" d="M25 25.25a1 1 0 0 0 0-2 .99.99 0 0 0-.5.139.99.99 0 0 0-.5-.139c-.012 0-.023.003-.034.003A.998.998 0 0 0 23 22.5a1 1 0 0 0-.941.672.988.988 0 0 0-.313-.137c0-.012.003-.023.003-.034a1 1 0 0 0-1-1 .99.99 0 0 0-.644.241.995.995 0 0 0-.856-.491.979.979 0 0 0-.272.042 1 1 0 0 0-1.956 0 .979.979 0 0 0-.272-.042.991.991 0 0 0-.764.362.997.997 0 0 0-.986-.862.996.996 0 0 0-.989.895.988.988 0 0 0-.511-.145.992.992 0 0 0-.475.125.993.993 0 0 0-1.714.294.995.995 0 0 0-.811-.419.992.992 0 0 0-.475.125.993.993 0 0 0-.775-.375 1 1 0 0 0-.978.792.979.979 0 0 0-.272-.042.998.998 0 0 0-.966.753c-.011 0-.022-.003-.034-.003a1 1 0 0 0 0 2h18z"/><path fill="#e6e6e6" style="fill:var(--color2,#e6e6e6)" d="M6 28.486C8.739 30.683 12.215 32 16 32s7.261-1.317 10-3.514V24.5H6v3.986z"/><path fill="#f5f5f5" style="fill:var(--color4,#f5f5f5)" d="M26.75 25c0 .275-.225.5-.5.5H5.75a.501.501 0 0 1-.5-.5c0-.275.225-.5.5-.5h20.5c.275 0 .5.225.5.5z"/><path fill="#e16b5a" style="fill:var(--color10,#e16b5a)" d="M12.25 25.5h-.5v5.925c.166.046.332.088.5.129V25.5zM10.25 25.5h-.5v5.233c.165.07.332.134.5.198V25.5zM11.25 25.5h-.5v5.614c.166.058.332.116.5.169V25.5zM13.25 25.5h-.5v6.169c.165.034.333.062.5.091V25.5zM8.25 25.5h-.5v4.21c.165.099.332.194.5.287v-4.498zM24.75 29.392c.169-.11.335-.224.5-.341V25.5h-.5v3.892zM7.25 29.392V25.5h-.5v3.551c.165.117.331.231.5.341zM14.25 25.5h-.5v6.339c.166.023.332.046.5.064V25.5zM9.25 25.5h-.5v4.762c.165.084.332.166.5.245v-5.006zM17.75 31.903c.168-.018.334-.04.5-.064V25.5h-.5v6.403zM21.75 30.931c.168-.065.335-.129.5-.198V25.5h-.5v5.431zM15.25 25.5h-.5v6.447c.166.013.332.026.5.034V25.5zM20.75 31.283c.169-.052.334-.111.5-.169V25.5h-.5v5.783zM22.75 30.506c.169-.078.335-.161.5-.245v-4.762h-.5v5.006zM19.75 31.554c.168-.04.334-.083.5-.129V25.5h-.5v6.054zM16.75 31.981c.168-.007.334-.021.5-.034V25.5h-.5v6.481zM16.25 31.994V25.5h-.5v6.494c.084.002.166.006.25.006s.166-.005.25-.006zM23.75 29.998c.168-.093.335-.188.5-.287v-4.21h-.5v4.498zM18.75 31.76c.167-.029.335-.057.5-.091V25.5h-.5v6.26z"/></symbol></defs></svg>