<svg aria-hidden="true" style="width:0;height:0;position:absolute;overflow:hidden" xmlns="http://www.w3.org/2000/svg"><defs><symbol id="icon-cinema-clapperboard" viewBox="0 0 32 32"><path d="M30.258 13.598H6.608l22.119-8.056a.811.811 0 0 0 .484-1.039L27.765.533a.81.81 0 0 0-1.039-.484L1.464 9.25a.811.811 0 0 0-.484 1.039l1.446 3.97a.848.848 0 0 0 .103.193V31.19c0 .448.363.81.81.81h26.918a.81.81 0 0 0 .81-.81V14.409a.81.81 0 0 0-.81-.81zM26.924 2.96l.487 1.337-.756.275.269-1.612zm-6.037.941 3.134-1.142-.492 2.951-3.134 1.142.492-2.951zm-6.261 2.28 3.134-1.142-.492 2.951-3.134 1.142.492-2.951zm-6.26 2.28L11.5 7.319l-.492 2.951-3.134 1.142.492-2.951zM5.239 9.6l-.492 2.951-1.076.392-.891-2.447L5.239 9.6zm.089 8.224H4.183v-2.605H6.8l-1.472 2.605zm6.663 0H8.655l1.472-2.605h3.336l-1.472 2.605zm6.663 0h-3.336l1.472-2.605h3.336l-1.472 2.605zm6.663 0h-3.336l1.472-2.605h3.336l-1.472 2.605zm4.131 0h-.804l.804-1.423v1.423z"/></symbol><symbol id="icon-orange-heart" viewBox="0 0 34 32"><path fill="#ff6b08" style="fill:var(--color75,#ff6b08)" d="m17.231 31.705-2.412-2.412C5.859 21.367.001 16.025.001 9.478.001 4.136 4.136.001 9.478.001c2.929 0 5.858 1.378 7.754 3.618 1.895-2.24 4.825-3.618 7.754-3.618 5.342 0 9.477 4.135 9.477 9.477 0 6.548-5.858 11.889-14.818 19.815l-2.412 2.412z"/></symbol><symbol id="icon-yellow-heart" viewBox="0 0 34 32"><path fill="#FF0" style="fill:var(--color75,#ff0)" d="m17.231 31.705-2.412-2.412C5.859 21.367.001 16.025.001 9.478.001 4.136 4.136.001 9.478.001c2.929 0 5.858 1.378 7.754 3.618 1.895-2.24 4.825-3.618 7.754-3.618 5.342 0 9.477 4.135 9.477 9.477 0 6.548-5.858 11.889-14.818 19.815l-2.412 2.412z"/></symbol><symbol id="icon-blue-heart" viewBox="0 0 34 32"><path fill="#00F" style="fill:var(--color75,#00f)" d="m17.231 31.705-2.412-2.412C5.859 21.367.001 16.025.001 9.478.001 4.136 4.136.001 9.478.001c2.929 0 5.858 1.378 7.754 3.618 1.895-2.24 4.825-3.618 7.754-3.618 5.342 0 9.477 4.135 9.477 9.477 0 6.548-5.858 11.889-14.818 19.815l-2.412 2.412z"/></symbol></defs></svg>