<svg aria-hidden="true" style="position: absolute; width: 0; height: 0; overflow: hidden;" version="1.1" xmlns="http://www.w3.org/2000/svg" xmlns:xlink="http://www.w3.org/1999/xlink">
<defs>
<symbol id="icon-cinema-clapperboard" viewBox="0 0 32 32">
<path d="M30.258 13.598h-23.65l22.119-8.056c0.202-0.074 0.366-0.224 0.457-0.419s0.101-0.418 0.027-0.62l-1.446-3.97c-0.153-0.421-0.618-0.637-1.039-0.484l-25.262 9.201c-0.202 0.074-0.366 0.224-0.457 0.419s-0.101 0.418-0.027 0.62l1.446 3.97c0.026 0.071 0.062 0.134 0.103 0.193v16.738c0 0.448 0.363 0.81 0.81 0.81h26.918c0.448 0 0.81-0.363 0.81-0.81v-16.781c0-0.448-0.363-0.81-0.81-0.81zM26.924 2.96l0.487 1.337-0.756 0.275 0.269-1.612zM20.887 3.901l3.134-1.142-0.492 2.951-3.134 1.142 0.492-2.951zM14.626 6.181l3.134-1.142-0.492 2.951-3.134 1.142 0.492-2.951zM8.366 8.461l3.134-1.142-0.492 2.951-3.134 1.142 0.492-2.951zM5.239 9.6l-0.492 2.951-1.076 0.392-0.891-2.447 2.459-0.896zM5.328 17.824h-1.145v-2.605h2.617l-1.472 2.605zM11.991 17.824h-3.336l1.472-2.605h3.336l-1.472 2.605zM18.654 17.824h-3.336l1.472-2.605h3.336l-1.472 2.605zM25.317 17.824h-3.336l1.472-2.605h3.336l-1.472 2.605zM29.448 17.824h-0.804l0.804-1.423v1.423z"></path>
</symbol>
<symbol id="icon-orange-heart" viewBox="0 0 34 32">
<path fill="#ff6b08" style="fill: var(--color75, #ff6b08)" d="M17.231 31.705l-2.412-2.412c-8.96-7.926-14.818-13.268-14.818-19.815 0-5.342 4.135-9.477 9.477-9.477 2.929 0 5.858 1.378 7.754 3.618 1.895-2.24 4.825-3.618 7.754-3.618 5.342 0 9.477 4.135 9.477 9.477 0 6.548-5.858 11.889-14.818 19.815l-2.412 2.412z"></path>
</symbol>
<symbol id="icon-yellow-heart" viewBox="0 0 34 32">
<path fill="#FFFF00" style="fill: var(--color75, #FFFF00)" d="M17.231 31.705l-2.412-2.412c-8.96-7.926-14.818-13.268-14.818-19.815 0-5.342 4.135-9.477 9.477-9.477 2.929 0 5.858 1.378 7.754 3.618 1.895-2.24 4.825-3.618 7.754-3.618 5.342 0 9.477 4.135 9.477 9.477 0 6.548-5.858 11.889-14.818 19.815l-2.412 2.412z"></path>
</symbol>
<symbol id="icon-blue-heart" viewBox="0 0 34 32">
<path fill="#0000FF" style="fill: var(--color75, #0000FF)" d="M17.231 31.705l-2.412-2.412c-8.96-7.926-14.818-13.268-14.818-19.815 0-5.342 4.135-9.477 9.477-9.477 2.929 0 5.858 1.378 7.754 3.618 1.895-2.24 4.825-3.618 7.754-3.618 5.342 0 9.477 4.135 9.477 9.477 0 6.548-5.858 11.889-14.818 19.815l-2.412 2.412z"></path>
</symbol>
<symbol id="icon-glasses" viewBox="0 0 32 32">
<path fill="#2d4452" style="fill: var(--color1, #2d4452)" d="M32 16c0 8.837-7.163 16-16 16s-16-7.163-16-16c0-8.837 7.163-16 16-16s16 7.163 16 16z"></path>
<path fill="#e6e6e6" style="fill: var(--color2, #e6e6e6)" d="M3.25 10.25c0 0 8.75-2.25 9.5-2.5s2.75 0 2.75 2.75c-0.5 0-0.75 0-1 0 0-0.75-0.25-1.75-1.25-1.75-1 0.25-4.25 1.5-4.25 1.5h-5.75z"></path>
<path fill="#d9d9d9" style="fill: var(--color3, #d9d9d9)" d="M12.5 8.75c-1 0.25-4.25 1.5-4.25 1.5h0.75c0 0 2.723-1.047 3.95-1.416-0.13-0.053-0.278-0.084-0.45-0.084z"></path>
<path fill="#d9d9d9" style="fill: var(--color3, #d9d9d9)" d="M12.901 7.71c0.851 0.152 1.849 0.846 1.849 2.79 0.187 0 0.411 0 0.75 0 0-2.582-1.763-2.96-2.599-2.79z"></path>
<path fill="#e6e6e6" style="fill: var(--color2, #e6e6e6)" d="M28.75 10.25c0 0-8.75-2.25-9.5-2.5s-2.75 0-2.75 2.75c0.5 0 0.75 0 1 0 0-0.75 0.25-1.75 1.25-1.75 1 0.25 4.25 1.5 4.25 1.5h5.75z"></path>
<path fill="#d9d9d9" style="fill: var(--color3, #d9d9d9)" d="M17.75 8.75c-0.935 0-1.214 0.874-1.247 1.601-0.002 0.050-0.003 0.098-0.003 0.149 0.5 0 0.75 0 1 0 0-0.588 0.155-1.326 0.702-1.62-0.177-0.055-0.331-0.1-0.452-0.13z"></path>
<path fill="#d9d9d9" style="fill: var(--color3, #d9d9d9)" d="M19.25 7.75c-0.248-0.082-0.633-0.11-1.037-0.011 0.012 0.003 0.025 0.007 0.037 0.011 0.75 0.25 9.5 2.5 9.5 2.5h1c0 0-8.75-2.25-9.5-2.5z"></path>
<path fill="#f5f5f5" style="fill: var(--color4, #f5f5f5)" d="M3.5 10.25c-0.825 0-1.5 0.675-1.5 1.5v6.25c0 0.825 0.675 1.5 1.5 1.5h7.979c0.825 0 1.796-0.607 2.157-1.349 0 0 0.927-2.151 2.364-2.151s2.364 2.151 2.364 2.151c0.361 0.742 1.332 1.349 2.157 1.349h7.979c0.825 0 1.5-0.675 1.5-1.5v-6.25c0-0.825-0.675-1.5-1.5-1.5h-25z"></path>
<path fill="#e6e6e6" style="fill: var(--color2, #e6e6e6)" d="M15.25 16c-1.438 0-2.364 2.151-2.364 2.151-0.361 0.742-1.332 1.349-2.157 1.349h0.75c0.825 0 1.796-0.607 2.157-1.349 0 0 0.768-1.776 1.989-2.097-0.121-0.031-0.245-0.054-0.375-0.054z"></path>
<path fill="#e6e6e6" style="fill: var(--color2, #e6e6e6)" d="M28.5 10.25h-0.75c0.825 0 1.5 0.675 1.5 1.5v6.25c0 0.825-0.675 1.5-1.5 1.5h0.75c0.825 0 1.5-0.675 1.5-1.5v-6.25c0-0.825-0.675-1.5-1.5-1.5z"></path>
<path fill="#cc584c" style="fill: var(--color5, #cc584c)" d="M28 11.5h-9.25c-0.55 0-1 0.45-1 1v2.651c1.23 0.819 1.895 2.282 1.992 2.505l0.040 0.093h8.218c0.55 0 1-0.45 1-1v-4.25c0-0.55-0.45-1-1-1z"></path>
<path fill="#2995cc" style="fill: var(--color6, #2995cc)" d="M12.258 17.657c0.096-0.224 0.761-1.687 1.992-2.505v-2.652c0-0.55-0.45-1-1-1h-9.25c-0.55 0-1 0.45-1 1v4.25c0 0.55 0.45 1 1 1h8.218l0.040-0.093z"></path>
<path fill="#52a3cc" style="fill: var(--color7, #52a3cc)" d="M6.607 11.5l-3.607 3.607v1.414l5.021-5.021z"></path>
<path fill="#52a3cc" style="fill: var(--color7, #52a3cc)" d="M10.143 11.5h-0.707l-6.040 6.040c0.144 0.11 0.318 0.181 0.507 0.2l6.24-6.24z"></path>
<path fill="#cc827a" style="fill: var(--color8, #cc827a)" d="M25.936 11.5l-6.183 6.183 0.029 0.067h0.611l6.25-6.25z"></path>
<path fill="#cc827a" style="fill: var(--color8, #cc827a)" d="M23.108 11.5l-4.455 4.454c0.242 0.274 0.444 0.554 0.606 0.808l5.262-5.263-1.414 0.001z"></path>
<path fill="#ffd464" style="fill: var(--color9, #ffd464)" d="M25 25.25c0.552 0 1-0.448 1-1s-0.448-1-1-1c-0.183 0-0.352 0.053-0.5 0.139-0.148-0.086-0.317-0.139-0.5-0.139-0.012 0-0.023 0.003-0.034 0.003-0.11-0.432-0.499-0.753-0.966-0.753-0.436 0-0.804 0.282-0.941 0.672-0.094-0.064-0.2-0.108-0.313-0.137 0-0.012 0.003-0.023 0.003-0.034 0-0.552-0.448-1-1-1-0.247 0-0.47 0.093-0.644 0.241-0.174-0.293-0.491-0.491-0.856-0.491-0.095 0-0.185 0.017-0.272 0.042-0.096-0.453-0.497-0.792-0.978-0.792s-0.882 0.34-0.978 0.792c-0.087-0.025-0.177-0.042-0.272-0.042-0.308 0-0.581 0.142-0.764 0.362-0.068-0.486-0.481-0.862-0.986-0.862-0.516 0-0.936 0.392-0.989 0.895-0.15-0.090-0.323-0.145-0.511-0.145-0.173 0-0.333 0.048-0.475 0.125-0.183-0.227-0.46-0.375-0.775-0.375-0.435 0-0.802 0.28-0.939 0.669-0.181-0.253-0.476-0.419-0.811-0.419-0.173 0-0.333 0.048-0.475 0.125-0.183-0.227-0.46-0.375-0.775-0.375-0.481 0-0.882 0.34-0.978 0.792-0.087-0.025-0.177-0.042-0.272-0.042-0.467 0-0.855 0.321-0.966 0.753-0.011 0-0.022-0.003-0.034-0.003-0.552 0-1 0.448-1 1s0.448 1 1 1h18z"></path>
<path fill="#e6e6e6" style="fill: var(--color2, #e6e6e6)" d="M6 28.486c2.739 2.197 6.215 3.514 10 3.514s7.261-1.317 10-3.514v-3.986h-20v3.986z"></path>
<path fill="#f5f5f5" style="fill: var(--color4, #f5f5f5)" d="M26.75 25c0 0.275-0.225 0.5-0.5 0.5h-20.5c-0.275 0-0.5-0.225-0.5-0.5v0c0-0.275 0.225-0.5 0.5-0.5h20.5c0.275 0 0.5 0.225 0.5 0.5v0z"></path>
<path fill="#e16b5a" style="fill: var(--color10, #e16b5a)" d="M12.25 25.5h-0.5v5.925c0.166 0.046 0.332 0.088 0.5 0.129v-6.054z"></path>
<path fill="#e16b5a" style="fill: var(--color10, #e16b5a)" d="M10.25 25.5h-0.5v5.233c0.165 0.070 0.332 0.134 0.5 0.198v-5.431z"></path>
<path fill="#e16b5a" style="fill: var(--color10, #e16b5a)" d="M11.25 25.5h-0.5v5.614c0.166 0.058 0.332 0.116 0.5 0.169v-5.783z"></path>
<path fill="#e16b5a" style="fill: var(--color10, #e16b5a)" d="M13.25 25.5h-0.5v6.169c0.165 0.034 0.333 0.062 0.5 0.091v-6.26z"></path>
<path fill="#e16b5a" style="fill: var(--color10, #e16b5a)" d="M8.25 25.5h-0.5v4.21c0.165 0.099 0.332 0.194 0.5 0.287v-4.498z"></path>
<path fill="#e16b5a" style="fill: var(--color10, #e16b5a)" d="M24.75 29.392c0.169-0.11 0.335-0.224 0.5-0.341v-3.551h-0.5v3.892z"></path>
<path fill="#e16b5a" style="fill: var(--color10, #e16b5a)" d="M7.25 29.392v-3.892h-0.5v3.551c0.165 0.117 0.331 0.231 0.5 0.341z"></path>
<path fill="#e16b5a" style="fill: var(--color10, #e16b5a)" d="M14.25 25.5h-0.5v6.339c0.166 0.023 0.332 0.046 0.5 0.064v-6.403z"></path>
<path fill="#e16b5a" style="fill: var(--color10, #e16b5a)" d="M9.25 25.5h-0.5v4.762c0.165 0.084 0.332 0.166 0.5 0.245v-5.006z"></path>
<path fill="#e16b5a" style="fill: var(--color10, #e16b5a)" d="M17.75 31.903c0.168-0.018 0.334-0.040 0.5-0.064v-6.339h-0.5v6.403z"></path>
<path fill="#e16b5a" style="fill: var(--color10, #e16b5a)" d="M21.75 30.931c0.168-0.065 0.335-0.129 0.5-0.198v-5.233h-0.5v5.431z"></path>
<path fill="#e16b5a" style="fill: var(--color10, #e16b5a)" d="M15.25 25.5h-0.5v6.447c0.166 0.013 0.332 0.026 0.5 0.034v-6.481z"></path>
<path fill="#e16b5a" style="fill: var(--color10, #e16b5a)" d="M20.75 31.283c0.169-0.052 0.334-0.111 0.5-0.169v-5.614h-0.5v5.783z"></path>
<path fill="#e16b5a" style="fill: var(--color10, #e16b5a)" d="M22.75 30.506c0.169-0.078 0.335-0.161 0.5-0.245v-4.762h-0.5v5.006z"></path>
<path fill="#e16b5a" style="fill: var(--color10, #e16b5a)" d="M19.75 31.554c0.168-0.040 0.334-0.083 0.5-0.129v-5.925h-0.5v6.054z"></path>
<path fill="#e16b5a" style="fill: var(--color10, #e16b5a)" d="M16.75 31.981c0.168-0.007 0.334-0.021 0.5-0.034v-6.447h-0.5v6.481z"></path>
<path fill="#e16b5a" style="fill: var(--color10, #e16b5a)" d="M16.25 31.994v-6.494h-0.5v6.494c0.084 0.002 0.166 0.006 0.25 0.006s0.166-0.005 0.25-0.006z"></path>
<path fill="#e16b5a" style="fill: var(--color10, #e16b5a)" d="M23.75 29.998c0.168-0.093 0.335-0.188 0.5-0.287v-4.21h-0.5v4.498z"></path>
<path fill="#e16b5a" style="fill: var(--color10, #e16b5a)" d="M18.75 31.76c0.167-0.029 0.335-0.057 0.5-0.091v-6.169h-0.5v6.26z"></path>
</symbol>
</defs>
</svg>
