<svg aria-hidden="true" style="position: absolute; width: 0; height: 0; overflow: hidden;" version="1.1" xmlns="http://www.w3.org/2000/svg" xmlns:xlink="http://www.w3.org/1999/xlink">
<defs>
<symbol id="icon-cinema-clapperboard" viewBox="0 0 32 32">
<path d="M30.258 13.598h-23.65l22.119-8.056c0.202-0.074 0.366-0.224 0.457-0.419s0.101-0.418 0.027-0.62l-1.446-3.97c-0.153-0.421-0.618-0.637-1.039-0.484l-25.262 9.201c-0.202 0.074-0.366 0.224-0.457 0.419s-0.101 0.418-0.027 0.62l1.446 3.97c0.026 0.071 0.062 0.134 0.103 0.193v16.738c0 0.448 0.363 0.81 0.81 0.81h26.918c0.448 0 0.81-0.363 0.81-0.81v-16.781c0-0.448-0.363-0.81-0.81-0.81zM26.924 2.96l0.487 1.337-0.756 0.275 0.269-1.612zM20.887 3.901l3.134-1.142-0.492 2.951-3.134 1.142 0.492-2.951zM14.626 6.181l3.134-1.142-0.492 2.951-3.134 1.142 0.492-2.951zM8.366 8.461l3.134-1.142-0.492 2.951-3.134 1.142 0.492-2.951zM5.239 9.6l-0.492 2.951-1.076 0.392-0.891-2.447 2.459-0.896zM5.328 17.824h-1.145v-2.605h2.617l-1.472 2.605zM11.991 17.824h-3.336l1.472-2.605h3.336l-1.472 2.605zM18.654 17.824h-3.336l1.472-2.605h3.336l-1.472 2.605zM25.317 17.824h-3.336l1.472-2.605h3.336l-1.472 2.605zM29.448 17.824h-0.804l0.804-1.423v1.423z"></path>
</symbol>
<symbol id="icon-orange-heart" viewBox="0 0 34 32">
<path fill="#ff6b08" style="fill: var(--color75, #ff6b08)" d="M17.231 31.705l-2.412-2.412c-8.96-7.926-14.818-13.268-14.818-19.815 0-5.342 4.135-9.477 9.477-9.477 2.929 0 5.858 1.378 7.754 3.618 1.895-2.24 4.825-3.618 7.754-3.618 5.342 0 9.477 4.135 9.477 9.477 0 6.548-5.858 11.889-14.818 19.815l-2.412 2.412z"></path>
</symbol>
<symbol id="icon-yellow-heart" viewBox="0 0 34 32">
<path fill="#FFFF00" style="fill: var(--color75, #FFFF00)" d="M17.231 31.705l-2.412-2.412c-8.96-7.926-14.818-13.268-14.818-19.815 0-5.342 4.135-9.477 9.477-9.477 2.929 0 5.858 1.378 7.754 3.618 1.895-2.24 4.825-3.618 7.754-3.618 5.342 0 9.477 4.135 9.477 9.477 0 6.548-5.858 11.889-14.818 19.815l-2.412 2.412z"></path>
</symbol>
<symbol id="icon-blue-heart" viewBox="0 0 34 32">
<path fill="#0000FF" style="fill: var(--color75, #0000FF)" d="M17.231 31.705l-2.412-2.412c-8.96-7.926-14.818-13.268-14.818-19.815 0-5.342 4.135-9.477 9.477-9.477 2.929 0 5.858 1.378 7.754 3.618 1.895-2.24 4.825-3.618 7.754-3.618 5.342 0 9.477 4.135 9.477 9.477 0 6.548-5.858 11.889-14.818 19.815l-2.412 2.412z"></path>
</symbol>
</defs>
</svg>
